<?xml version="1.0" standalone="no"?>
<!DOCTYPE svg PUBLIC "-//W3C//DTD SVG 20010904//EN"
 "http://www.w3.org/TR/2001/REC-SVG-20010904/DTD/svg10.dtd">
<svg version="1.0" xmlns="http://www.w3.org/2000/svg"
 width="925.000000pt" height="1311.000000pt" viewBox="0 0 925.000000 1311.000000"
 preserveAspectRatio="xMidYMid meet">

<g transform="translate(0.000000,1311.000000) scale(0.100000,-0.100000)"
fill="#000000" stroke="none">
<path d="M4195 13029 c-251 -25 -571 -86 -804 -154 -126 -37 -351 -111 -358
-119 -3 -2 66 -163 152 -356 86 -194 155 -353 153 -355 -2 -1 -88 94 -193 211
-104 118 -209 235 -233 262 -24 26 -66 73 -94 105 -28 31 -55 57 -60 57 -15 0
-246 -179 -428 -331 -759 -637 -1177 -1281 -1302 -2004 -30 -172 -32 -562 -5
-750 54 -366 178 -762 379 -1205 66 -146 311 -636 585 -1170 310 -604 454
-1063 455 -1450 1 -225 -41 -434 -118 -594 -13 -27 -22 -51 -20 -54 7 -7 172
156 230 227 164 202 295 474 351 731 45 206 56 450 30 670 -35 299 -95 514
-245 874 -212 513 -312 1032 -297 1536 24 763 296 1341 802 1705 50 36 155 98
235 138 329 166 673 238 1135 239 300 1 574 -28 911 -95 l162 -33 17 81 c45
214 184 476 379 718 100 125 271 303 381 398 l85 73 -27 23 c-314 261 -760
468 -1218 564 -243 51 -348 61 -655 64 -162 2 -335 -1 -385 -6z"/>
<path d="M4300 10904 c-678 -90 -1167 -424 -1446 -989 -80 -162 -136 -328
-174 -515 -106 -528 -25 -1089 218 -1503 40 -69 42 -68 62 45 23 127 92 395
147 561 284 876 778 1437 1550 1761 121 50 461 166 487 166 6 0 -54 -34 -134
-76 -716 -372 -1270 -1031 -1642 -1954 -83 -205 -258 -727 -258 -768 0 -5 24
-33 54 -62 159 -153 373 -256 555 -267 l86 -5 25 38 c86 131 312 381 454 503
466 399 972 616 1661 713 142 20 201 22 520 23 284 0 391 -4 505 -18 209 -25
429 -63 570 -97 68 -17 124 -29 126 -27 2 1 -156 162 -350 356 l-353 353 -174
-56 c-95 -31 -179 -54 -185 -52 -6 2 -130 87 -275 187 -145 101 -296 205 -335
231 l-70 49 -90 -27 c-49 -14 -114 -33 -144 -42 l-56 -15 -187 88 c-104 49
-190 91 -192 95 -4 6 58 21 450 105 l200 44 70 -43 c94 -58 358 -220 473 -290
l92 -57 163 36 c89 20 167 40 174 44 7 4 -261 234 -682 585 -382 318 -699 584
-704 590 -7 8 -1 40 16 94 14 46 23 85 20 88 -8 9 -203 52 -332 74 -295 50
-668 64 -895 34z"/>
<path d="M6415 8413 c-879 -43 -1657 -369 -2225 -933 -129 -128 -299 -326
-304 -354 -2 -12 -9 -82 -15 -156 -43 -530 -182 -946 -427 -1277 -159 -215
-404 -413 -661 -533 -51 -24 -93 -47 -93 -50 0 -4 24 -14 53 -23 494 -155
1068 183 1728 1018 136 171 263 347 440 605 85 124 162 237 172 250 l18 25
-12 -25 c-7 -14 -66 -122 -132 -240 -352 -634 -609 -1028 -853 -1312 -40 -47
-74 -88 -74 -91 0 -2 21 0 48 6 81 17 355 13 452 -7 183 -39 379 -119 530
-216 353 -229 693 -647 947 -1165 57 -118 68 -128 42 -40 -17 60 -79 394 -103
555 -56 373 -77 654 -76 1040 0 157 2 293 3 304 1 13 -22 33 -87 73 -115 70
-188 127 -257 199 -50 53 -87 104 -75 104 2 0 41 -20 87 -44 209 -111 493
-181 784 -195 153 -7 352 2 413 19 155 41 187 179 90 392 -17 37 -28 74 -24
83 3 8 26 24 51 35 70 30 79 71 40 173 -5 11 -2 17 7 17 16 0 60 44 78 78 8
18 9 31 1 50 -9 23 -30 144 -31 178 0 7 33 9 103 6 56 -2 118 0 137 5 31 8 35
13 32 37 -2 15 -26 82 -54 149 -146 353 -228 673 -228 890 0 61 1 63 36 82 82
44 145 132 160 222 l6 40 -63 7 c-215 23 -456 30 -664 19z"/>
<path d="M697 1298 c-8 -18 -58 -136 -112 -263 -240 -565 -329 -775 -361 -848
-19 -43 -34 -82 -34 -88 0 -6 52 -9 136 -7 l137 3 55 137 56 138 260 0 261 0
55 -138 55 -137 129 -3 c72 -1 135 -1 142 2 8 3 -6 46 -45 138 -31 73 -149
350 -261 615 l-205 483 -127 0 -128 0 -13 -32z m223 -501 c40 -98 70 -180 67
-183 -2 -2 -74 -3 -159 -2 l-156 3 70 170 c38 94 74 181 79 195 13 32 10 38
99 -183z"/>
<path d="M1853 1322 c-22 -3 -23 -7 -23 -123 l0 -119 185 0 185 0 2 -492 3
-493 132 -3 133 -3 2 493 3 493 188 3 187 2 0 120 0 120 -32 1 c-107 3 -947 3
-965 1z"/>
<path d="M3299 1319 c-5 -3 -8 -254 -7 -615 l3 -609 133 -3 132 -3 0 251 0
250 250 0 250 0 2 -247 3 -248 133 -3 132 -3 -2 618 -3 618 -75 -2 c-41 0
-101 -1 -132 -2 l-58 -1 0 -240 0 -240 -250 0 -250 0 0 240 0 240 -32 1 c-127
4 -221 3 -229 -2z"/>
<path d="M4922 1322 l-62 -3 2 -612 3 -612 465 0 465 0 0 118 0 118 -305 0
c-168 0 -317 3 -332 6 l-28 5 0 123 0 123 33 5 c17 3 142 6 277 6 135 0 251 0
258 1 10 0 12 27 10 118 l-3 117 -287 3 -288 2 0 120 0 120 328 2 327 3 3 118
c1 64 -1 117 -5 118 -24 2 -808 4 -861 1z"/>
<path d="M6318 1322 l-38 -3 0 -615 0 -614 130 0 130 0 2 392 3 391 185 -242
c102 -134 236 -310 299 -392 l114 -150 111 3 111 3 3 613 2 612 -22 1 c-27 1
-217 1 -235 0 -10 -1 -13 -86 -15 -371 l-3 -371 -177 233 c-98 128 -226 296
-285 373 l-108 139 -85 1 c-47 0 -102 -1 -122 -3z"/>
<path d="M8215 1078 c-59 -139 -176 -416 -261 -615 -85 -199 -154 -364 -154
-368 0 -3 61 -4 136 -3 l136 3 55 137 56 138 262 0 261 0 56 -137 55 -138 137
-3 c111 -2 136 0 136 11 0 8 -49 129 -108 268 -60 140 -176 413 -258 606
l-149 353 -126 0 -127 0 -107 -252z m314 -276 c39 -95 71 -177 71 -182 0 -6
-61 -10 -155 -10 -93 0 -155 4 -155 10 0 5 30 83 66 172 36 90 70 174 76 188
12 31 8 39 97 -178z"/>
</g>
</svg>