<?xml version="1.0" standalone="no"?>
<!DOCTYPE svg PUBLIC "-//W3C//DTD SVG 20010904//EN"
 "http://www.w3.org/TR/2001/REC-SVG-20010904/DTD/svg10.dtd">
<svg version="1.0" xmlns="http://www.w3.org/2000/svg"
 width="925.000000pt" height="935.000000pt" viewBox="0 0 925.000000 935.000000"
 preserveAspectRatio="xMidYMid meet">

<g transform="translate(0.000000,935.000000) scale(0.100000,-0.100000)"
fill="#000000" stroke="none">
<path d="M4250 9274 c-19 -2 -80 -9 -135 -15 -275 -29 -629 -108 -914 -203
-89 -30 -165 -57 -168 -60 -3 -2 65 -162 151 -355 86 -193 156 -353 156 -356
0 -3 -43 43 -96 102 -54 59 -113 126 -133 148 -20 22 -72 80 -116 130 -44 49
-101 112 -126 140 -26 27 -59 65 -74 83 -15 17 -31 32 -36 32 -16 0 -244 -176
-429 -331 -759 -637 -1177 -1281 -1302 -2004 -30 -172 -32 -562 -5 -750 40
-270 118 -556 234 -860 117 -304 197 -471 720 -1495 324 -634 464 -1078 465
-1470 1 -225 -41 -434 -118 -594 -13 -27 -22 -52 -19 -55 3 -2 58 49 123 115
344 349 519 819 499 1343 -13 329 -81 618 -237 996 -231 561 -333 1068 -317
1585 14 455 114 835 303 1158 85 144 155 234 284 362 143 143 263 229 450 323
328 165 674 238 1135 239 300 1 574 -28 911 -95 l162 -33 17 81 c46 214 183
474 380 720 84 105 309 337 408 422 l59 49 -99 75 c-316 240 -721 420 -1148
510 -244 51 -347 61 -655 64 -162 2 -311 1 -330 -1z"/>
<path d="M4300 7144 c-678 -90 -1167 -424 -1446 -989 -120 -243 -192 -517
-215 -816 -22 -301 26 -656 126 -924 31 -81 127 -279 154 -314 l19 -25 16 80
c146 700 354 1190 676 1594 255 319 606 577 1026 753 124 52 460 167 487 167
7 0 -53 -34 -133 -76 -484 -251 -892 -632 -1223 -1141 -262 -402 -457 -844
-637 -1441 l-43 -143 54 -55 c100 -101 265 -201 404 -244 39 -12 108 -24 155
-27 l85 -5 25 38 c86 131 312 381 454 503 464 397 979 618 1656 712 147 21
205 23 525 24 284 0 390 -4 505 -18 209 -25 429 -63 570 -97 68 -17 124 -29
126 -27 2 1 -156 162 -350 356 l-353 353 -177 -57 -178 -58 -76 54 c-42 29
-104 71 -137 94 -33 23 -121 84 -195 135 -74 52 -167 116 -206 142 l-70 49
-90 -27 c-49 -14 -115 -33 -146 -42 l-57 -16 -103 50 c-57 27 -142 68 -190 89
-48 22 -87 43 -88 46 0 3 24 11 53 17 28 6 175 38 326 71 l275 60 70 -43 c39
-24 150 -92 246 -151 96 -59 208 -127 248 -152 l72 -44 171 38 c93 21 170 42
170 46 0 5 -305 263 -678 573 -373 311 -688 575 -700 587 l-22 22 26 83 c14
45 23 85 20 88 -8 9 -203 52 -332 74 -295 50 -668 64 -895 34z"/>
<path d="M6415 4653 c-887 -43 -1671 -375 -2240 -948 -130 -131 -284 -312
-289 -340 -2 -11 -9 -81 -15 -155 -58 -716 -299 -1244 -722 -1581 -110 -87
-234 -165 -360 -226 -54 -26 -99 -50 -99 -53 0 -4 24 -14 53 -23 494 -155
1068 183 1728 1018 136 171 263 347 440 605 85 124 162 237 172 250 l18 25
-12 -25 c-22 -46 -257 -466 -340 -607 -249 -422 -454 -723 -645 -945 -40 -47
-74 -88 -74 -91 0 -2 21 0 48 6 81 17 355 13 452 -7 183 -39 379 -119 530
-216 353 -229 693 -647 947 -1165 57 -118 68 -128 42 -40 -17 60 -79 394 -103
555 -56 373 -77 654 -76 1040 0 157 2 293 3 304 1 13 -22 33 -87 73 -115 70
-188 127 -257 199 -52 55 -92 111 -72 103 4 -3 60 -30 123 -61 198 -99 475
-164 745 -177 153 -7 352 2 413 19 155 41 187 179 90 392 -17 37 -28 74 -24
83 3 8 26 24 51 35 70 30 79 71 40 173 -5 11 -2 17 7 17 16 0 60 44 78 78 8
18 9 31 1 50 -9 23 -30 144 -31 178 0 7 33 9 103 6 56 -2 118 0 137 5 31 8 35
13 32 37 -2 15 -26 82 -54 149 -146 353 -228 675 -228 890 l0 62 53 33 c65 41
106 91 129 157 30 86 27 92 -44 99 -214 23 -456 29 -663 19z"/>
</g>
</svg>